<svg width="590" height="144" viewBox="0 0 590 144" fill="none" xmlns="http://www.w3.org/2000/svg">
<path d="M169.4 46.0401C174.73 43.2001 180.84 41.7701 187.71 41.7701C195.89 41.7701 203.29 43.8501 209.93 47.9901C216.57 52.1401 221.81 58.0701 225.66 65.7701C229.51 73.4801 231.44 82.4201 231.44 92.6201C231.44 102.82 229.51 111.79 225.66 119.55C221.81 127.31 216.56 133.3 209.93 137.51C203.29 141.72 195.89 143.82 187.71 143.82C180.72 143.82 174.61 142.43 169.4 139.64C164.18 136.86 160.09 133.15 157.13 128.53V142.4H126.73V10.8401H157.13V57.2401C159.97 52.6201 164.06 48.8801 169.4 46.0401ZM194.21 74.7501C190 70.4201 184.81 68.2601 178.65 68.2601C172.49 68.2601 167.48 70.4501 163.27 74.8401C159.06 79.2301 156.96 85.2101 156.96 92.8001C156.96 100.39 159.06 106.37 163.27 110.76C167.48 115.15 172.6 117.34 178.65 117.34C184.7 117.34 189.85 115.12 194.12 110.67C198.39 106.23 200.52 100.21 200.52 92.6301C200.52 85.0501 198.41 79.0901 194.21 74.7601V74.7501Z" fill="#006699"/>
<path d="M290.12 46.0401C295.45 43.2001 301.56 41.7701 308.43 41.7701C316.61 41.7701 324.01 43.8501 330.65 47.9901C337.29 52.1401 342.53 58.0701 346.38 65.7701C350.23 73.4801 352.16 82.4201 352.16 92.6201C352.16 102.82 350.23 111.79 346.38 119.55C342.53 127.31 337.28 133.3 330.65 137.51C324.01 141.72 316.61 143.82 308.43 143.82C301.44 143.82 295.33 142.43 290.12 139.64C284.9 136.86 280.82 133.15 277.85 128.53V142.4H247.45V10.8401H277.85V57.2401C280.69 52.6201 284.78 48.8801 290.12 46.0401ZM314.92 74.7501C310.71 70.4201 305.53 68.2601 299.37 68.2601C293.21 68.2601 288.2 70.4501 283.99 74.8401C279.78 79.2301 277.68 85.2101 277.68 92.8001C277.68 100.39 279.78 106.37 283.99 110.76C288.2 115.15 293.32 117.34 299.37 117.34C305.42 117.34 310.57 115.12 314.84 110.67C319.11 106.23 321.24 100.21 321.24 92.6301C321.24 85.0501 319.13 79.0901 314.93 74.7601L314.92 74.7501Z" fill="#006699"/>
<path d="M411.9 46.8399C417.23 43.6999 423.16 42.1299 429.68 42.1299V74.3099H421.32C413.73 74.3099 408.04 75.9399 404.25 79.1999C400.46 82.4599 398.56 88.1799 398.56 96.3599V142.41H368.16V43.2099H398.56V59.7399C402.12 54.2899 406.56 49.9899 411.89 46.8499L411.9 46.8399Z" fill="#006699"/>
<path d="M446.47 28.18C443.09 25.04 441.4 21.16 441.4 16.53C441.4 11.9 443.09 7.85 446.47 4.71C449.85 1.57 454.2 0 459.54 0C464.88 0 469.05 1.57 472.43 4.71C475.81 7.85 477.5 11.79 477.5 16.53C477.5 21.27 475.81 25.04 472.43 28.18C469.05 31.32 464.76 32.89 459.54 32.89C454.32 32.89 449.85 31.32 446.47 28.18ZM474.65 43.2V142.4H444.25V43.2H474.65Z" fill="#006699"/>
<path d="M555.37 142.4L536.35 114.84L520.35 142.4H487.46L520.17 91.7299L486.57 43.1899H520.7L539.72 70.5699L555.72 43.1899H588.61L555.36 93.1499L589.49 142.4H555.36H555.37Z" fill="#006699"/>
<path d="M31.58 99.37C31.15 97.27 30.92 95.03 30.92 92.62C30.92 85.04 33.02 79.08 37.23 74.75C41.44 70.42 46.56 68.26 52.61 68.26C58.66 68.26 63.78 70.45 67.99 74.84C68.09 74.95 68.18 75.07 68.28 75.17L104.71 51.15V43.19H74.31V57.23C71.47 52.61 67.4 48.87 62.13 46.03C56.86 43.19 50.72 41.76 43.73 41.76C35.55 41.76 28.14 43.84 21.51 47.98C14.87 52.13 9.63 58.06 5.78 65.76C1.93 73.47 0 82.41 0 92.61C0 101.76 1.57 109.93 4.67 117.12L31.6 99.36L31.58 99.37Z" fill="#006699"/>
<path d="M73.48 85.32C74.01 87.61 74.29 90.1 74.29 92.8C74.29 100.39 72.18 106.37 67.98 110.76C63.77 115.15 58.65 117.34 52.6 117.34C46.55 117.34 41.43 115.12 37.22 110.67C36.94 110.38 36.7 110.06 36.44 109.75L10.29 127C13.43 131.26 17.16 134.77 21.49 137.52C28.13 141.73 35.47 143.83 43.54 143.83C50.53 143.83 56.66 142.41 61.94 139.56C67.21 136.72 71.33 132.98 74.3 128.36V142.4H104.7V64.74L73.49 85.32H73.48Z" fill="#006699"/>
</svg>
