<svg width="200" height="200" viewBox="0 0 200 200" fill="none" xmlns="http://www.w3.org/2000/svg">
<path fill-rule="evenodd" clip-rule="evenodd" d="M78.6666 22.6666C78.7995 23.6017 78.6513 24.4906 78.2222 25.3333C59.9741 42.5577 47.3815 63.2985 40.4444 87.5555C61.5256 97.6986 71.1553 114.588 69.3333 138.222C71.0247 154.345 77.6913 167.974 89.3333 179.111C88.9893 180.196 88.2487 180.788 87.1111 180.889C85.3502 179.867 83.7206 178.681 82.2222 177.333C75.4432 169.789 70.2581 161.196 66.6666 151.556C63.7451 140.756 61.6711 129.794 60.4444 118.667C57.1644 107.546 50.4977 99.2497 40.4444 93.7777C37.6946 91.0595 34.4354 88.9857 30.6666 87.5555C29.7042 86.7866 29.556 85.8977 30.2222 84.8889C40.2757 64.4697 53.1646 46.0994 68.8888 29.7777C71.3751 27.7377 73.7455 25.5155 76 23.1111C76.8426 22.6819 77.7315 22.5337 78.6666 22.6666Z" fill="#0403FA"/>
<path fill-rule="evenodd" clip-rule="evenodd" d="M67.1112 86.6667C63.2144 86.3773 59.3626 86.6736 55.5556 87.5556C56.5348 88.1562 57.4237 88.7488 58.2223 89.3334C57.0371 89.3334 55.8519 89.3334 54.6667 89.3334C54.6667 88.1482 54.6667 86.963 54.6667 85.7778C58.9897 85.4938 63.1379 85.7902 67.1112 86.6667Z" fill="#0403FA"/>
<path fill-rule="evenodd" clip-rule="evenodd" d="M58.2223 89.3333C57.4238 88.7487 56.5349 88.1561 55.5557 87.5555C59.3626 86.6735 63.2144 86.3772 67.1112 86.6666C69.7622 87.0781 72.4289 87.3743 75.1112 87.5555C76.5191 73.9984 80.5191 61.2577 87.1112 49.3333C98.089 33.0605 113.053 27.8753 132 33.7777C135.7 35.8288 136.292 38.4955 133.778 41.7777C128.374 42.9265 124.819 40.8525 123.111 35.5555C106.869 33.4283 96.0543 40.095 90.6668 55.5555C89.4997 59.0403 88.6104 62.5959 88.0001 66.2222C87.1766 76.2878 86.4359 86.3619 85.7779 96.4444C76.9774 92.5404 67.7922 90.1706 58.2223 89.3333Z" fill="#0403FA"/>
<path fill-rule="evenodd" clip-rule="evenodd" d="M147.111 17.3334C146.162 18.164 144.977 18.4603 143.556 18.2223C143.556 19.1112 143.556 20 143.556 20.8889C142.725 19.94 142.428 18.7547 142.667 17.3334C144.148 17.3334 145.629 17.3334 147.111 17.3334Z" fill="#0403FA"/>
<path d="M138.667 7.55579C142.7 3.13341 147.588 1.94813 153.333 4.00012C158.801 8.92666 159.098 14.112 154.223 19.5558C151.516 20.2178 149.146 21.4031 147.111 23.1115C149.427 30.1514 151.945 37.1143 154.667 44.0001C162.987 50.5666 166.987 59.1592 166.667 69.7775C162.462 67.6827 158.017 66.0533 153.333 64.8888C149.492 64.4453 145.64 64.2972 141.777 64.4445C141.795 75.8445 142.981 87.1043 145.333 98.2228C151.609 97.2948 156.499 99.3689 160 104.444C161.447 110.634 159.521 115.375 154.223 118.667C146.175 121.09 139.508 119.015 134.223 112.444C124.315 99.4525 116.463 85.2297 110.667 69.7775C113.63 68.5925 116.593 68.5924 119.556 69.7775C123.287 82.5705 128.472 94.7197 135.111 106.223C139.113 111.45 144.298 114.264 150.667 114.667C156.518 111.832 157.407 107.979 153.333 103.111C149.969 102.92 146.709 102.773 143.556 102.667C137.294 89.4351 133.738 75.5083 132.889 60.8888C142.086 60.8753 151.272 61.1714 160.444 61.7775C160.424 59.6206 159.98 57.5467 159.111 55.5558C154.823 50.7379 149.49 47.4781 143.111 45.7775C143.334 39.2613 140.816 34.0766 135.556 30.2228C129.67 26.9769 123.448 24.6064 116.889 23.1115C107.58 21.9622 98.3952 20.9249 89.333 20.0001V16.4445C103.084 15.5538 116.566 17.0353 129.777 20.8888C131.457 20.6353 132.642 19.7467 133.333 18.2228C135.081 14.6847 136.859 11.1289 138.667 7.55579ZM152.889 14.6671C153.287 8.55586 150.473 6.3333 144.444 8.00012C141.575 12.7321 139.205 17.7694 137.333 23.1115C138.924 25.0352 140.85 26.6646 143.111 28.0001C143.553 25.6481 143.701 23.2775 143.556 20.8888C142.725 19.9398 142.429 18.7544 142.667 17.3331H147.111C149.421 17.2892 151.347 16.4007 152.889 14.6671Z" fill="#0403FA"/>
<path fill-rule="evenodd" clip-rule="evenodd" d="M115.111 127.556C115.695 148.614 115.102 169.355 113.333 189.778C110.775 189.004 108.405 187.82 106.222 186.222C105.186 165.488 105.037 144.747 105.778 124C108.748 125.559 111.859 126.744 115.111 127.556Z" fill="#0403FA"/>
<path fill-rule="evenodd" clip-rule="evenodd" d="M168.445 124.889C169.332 145.18 169.628 165.624 169.333 186.222C166.029 187.652 162.918 189.43 160 191.556C159.556 170.521 159.407 149.484 159.556 128.444C161.219 127.292 162.997 126.403 164.889 125.778C166.074 125.482 167.26 125.185 168.445 124.889Z" fill="#0403FA"/>
<path fill-rule="evenodd" clip-rule="evenodd" d="M115.111 127.556C116.292 148.744 116.292 170.077 115.111 191.556C114.203 191.24 113.61 190.647 113.333 189.778C115.102 169.355 115.695 148.614 115.111 127.556Z" fill="#0403FA"/>
<path fill-rule="evenodd" clip-rule="evenodd" d="M132.889 162.222C132.004 173.027 131.708 183.99 132 195.111C131.111 195.111 130.222 195.111 129.333 195.111C127.235 194.956 125.161 194.66 123.111 194.222C123.111 172.889 123.111 151.556 123.111 130.222C126.074 130.222 129.037 130.222 132 130.222C131.852 137.34 132 144.451 132.444 151.556C135.76 152.409 139.167 152.705 142.667 152.444C142.667 145.333 142.667 138.222 142.667 131.111C146.192 130.523 149.748 130.227 153.333 130.222C153.333 151.556 153.333 172.889 153.333 194.222C149.727 194.532 146.172 195.124 142.667 196C142.667 184.74 142.667 173.482 142.667 162.222C139.407 162.222 136.148 162.222 132.889 162.222Z" fill="#0403FA"/>
<path fill-rule="evenodd" clip-rule="evenodd" d="M168.444 124.889C168.498 124.406 168.794 124.11 169.333 124C170.515 144.886 170.515 165.627 169.333 186.222C169.627 165.624 169.331 145.18 168.444 124.889Z" fill="#0403FA"/>
<path fill-rule="evenodd" clip-rule="evenodd" d="M132.889 162.222C132.889 173.482 132.889 184.74 132.889 196C131.704 196 130.518 196 129.333 196C129.333 195.704 129.333 195.407 129.333 195.111C130.222 195.111 131.111 195.111 132 195.111C131.707 183.99 132.004 173.027 132.889 162.222Z" fill="#0403FA"/>
<path d="M100.604 183.922C100.604 184.725 100.455 185.426 100.156 186.023C99.8577 186.62 99.4239 187.086 98.855 187.42C98.2861 187.748 97.6035 187.911 96.807 187.911C96.0106 187.911 95.3172 187.748 94.727 187.42C94.1368 187.086 93.6781 186.62 93.351 186.023C93.0239 185.419 92.8604 184.711 92.8604 183.9C92.8604 183.63 92.8817 183.342 92.9244 183.036C92.9599 182.731 93.0097 182.468 93.0737 182.247C93.1092 182.112 93.1412 181.988 93.1697 181.874C93.1981 181.76 93.2123 181.646 93.2123 181.532C93.2123 181.447 93.2017 181.362 93.1804 181.276C93.4932 181.262 93.8168 181.248 94.151 181.234C94.4852 181.22 94.8337 181.198 95.1964 181.17C95.2177 181.319 95.2248 181.444 95.2177 181.543C94.5635 181.685 94.0799 181.945 93.767 182.322C93.447 182.699 93.287 183.2 93.287 183.826C93.287 184.324 93.3795 184.75 93.5644 185.106C93.7421 185.454 93.9875 185.739 94.3003 185.959C94.6132 186.172 94.9759 186.329 95.3883 186.428C95.7937 186.528 96.2275 186.578 96.6897 186.578C97.3652 186.578 97.9626 186.475 98.4817 186.268C99.0008 186.062 99.4097 185.749 99.7083 185.33C99.9999 184.903 100.146 184.37 100.146 183.73C100.146 183.531 100.128 183.31 100.092 183.068C100.05 182.827 99.9857 182.596 99.9004 182.375H98.5563C98.3359 182.375 98.1652 182.386 98.0444 182.407C97.9164 182.421 97.8239 182.468 97.767 182.546C97.7101 182.617 97.671 182.734 97.6497 182.898C97.6212 183.054 97.5964 183.271 97.575 183.548C97.4612 183.57 97.3475 183.57 97.2337 183.548C97.2337 183.399 97.2372 183.218 97.2444 183.004C97.2444 182.791 97.2479 182.578 97.255 182.364C97.255 182.144 97.255 181.963 97.255 181.82C97.255 181.6 97.2515 181.348 97.2444 181.063C97.2372 180.772 97.2337 180.523 97.2337 180.316C97.3404 180.302 97.4506 180.302 97.5644 180.316C97.5999 180.608 97.6355 180.818 97.671 180.946C97.7066 181.074 97.7777 181.152 97.8844 181.18C97.991 181.209 98.1724 181.223 98.4284 181.223H98.7697C99.1039 181.223 99.3848 181.216 99.6124 181.202C99.8399 181.18 100.003 181.163 100.103 181.148C100.437 182.137 100.604 183.061 100.604 183.922Z" fill="#0403FA"/>
<path d="M97.0739 170.496L97.0419 170.773H99.1219C99.3423 170.773 99.5165 170.766 99.6445 170.752C99.7725 170.738 99.865 170.702 99.9219 170.645C99.9788 170.581 100.021 170.482 100.05 170.347C100.071 170.204 100.093 170.009 100.114 169.76C100.228 169.739 100.341 169.739 100.455 169.76C100.455 169.902 100.452 170.073 100.445 170.272C100.445 170.471 100.445 170.67 100.445 170.869C100.437 171.068 100.434 171.236 100.434 171.371C100.434 171.499 100.437 171.666 100.445 171.872C100.445 172.078 100.445 172.284 100.445 172.491C100.452 172.697 100.455 172.871 100.455 173.013C100.349 173.035 100.235 173.035 100.114 173.013C100.085 172.672 100.057 172.427 100.029 172.277C99.993 172.128 99.9219 172.036 99.8152 172C99.7014 171.964 99.5165 171.947 99.2605 171.947H94.2899C93.9983 171.947 93.7885 171.968 93.6605 172.011C93.5325 172.046 93.4472 172.139 93.4045 172.288C93.3619 172.437 93.3299 172.679 93.3085 173.013C93.2019 173.035 93.0881 173.035 92.9672 173.013C92.9672 172.878 92.9708 172.704 92.9779 172.491C92.9779 172.27 92.9814 172.057 92.9885 171.851C92.9885 171.637 92.9885 171.481 92.9885 171.381C92.9885 171.253 92.9885 171.09 92.9885 170.891C92.9814 170.684 92.9743 170.482 92.9672 170.283C92.9601 170.076 92.9565 169.916 92.9565 169.803C92.9565 169.355 93.017 168.939 93.1379 168.555C93.2588 168.164 93.4579 167.851 93.7352 167.616C94.0054 167.374 94.3717 167.253 94.8339 167.253C95.289 167.253 95.6943 167.392 96.0499 167.669C96.4054 167.94 96.6721 168.37 96.8499 168.96H96.8819C96.9672 168.853 97.1094 168.732 97.3085 168.597L98.9299 167.477C99.193 167.292 99.3992 167.14 99.5485 167.019C99.6979 166.891 99.8117 166.77 99.8899 166.656C99.961 166.542 100.011 166.411 100.039 166.261C100.068 166.112 100.093 165.924 100.114 165.696C100.228 165.675 100.341 165.675 100.455 165.696C100.455 165.831 100.452 165.998 100.445 166.197C100.445 166.396 100.445 166.588 100.445 166.773C100.437 166.958 100.434 167.108 100.434 167.221C100.434 167.335 100.437 167.435 100.445 167.52C100.445 167.605 100.445 167.705 100.445 167.819L97.5325 169.792C97.3477 169.913 97.2303 170.02 97.1805 170.112C97.1237 170.205 97.0881 170.332 97.0739 170.496ZM96.6045 170.773C96.6188 170.681 96.6294 170.599 96.6365 170.528C96.6437 170.457 96.6472 170.389 96.6472 170.325C96.6472 169.771 96.505 169.333 96.2205 169.013C95.9361 168.686 95.5165 168.523 94.9619 168.523C94.457 168.523 94.0694 168.665 93.7992 168.949C93.529 169.227 93.3939 169.639 93.3939 170.187C93.3939 170.258 93.3974 170.347 93.4045 170.453C93.4117 170.553 93.4223 170.66 93.4365 170.773H96.6045Z" fill="#0403FA"/>
<path d="M92.967 158.962C92.967 158.82 92.9706 158.649 92.9777 158.45C92.9777 158.244 92.9813 158.041 92.9884 157.842C92.9884 157.636 92.9884 157.465 92.9884 157.33C92.9884 157.195 92.9884 157.028 92.9884 156.828C92.9813 156.622 92.9777 156.416 92.9777 156.21C92.9706 156.004 92.967 155.829 92.967 155.687C93.0737 155.666 93.1839 155.666 93.2977 155.687C93.3262 156.014 93.3582 156.252 93.3937 156.402C93.4293 156.551 93.5004 156.644 93.607 156.679C93.7137 156.715 93.895 156.732 94.151 156.732H97.639C98.4355 156.732 99.0293 156.562 99.4204 156.22C99.8044 155.872 99.9964 155.367 99.9964 154.706C99.9964 154.009 99.7795 153.483 99.3457 153.127C98.9119 152.772 98.2399 152.594 97.3297 152.594H94.407C94.1582 152.594 93.9662 152.604 93.831 152.626C93.6888 152.64 93.5857 152.686 93.5217 152.764C93.4577 152.836 93.415 152.946 93.3937 153.095C93.3653 153.244 93.3368 153.454 93.3084 153.724C93.2017 153.746 93.0915 153.746 92.9777 153.724C92.9777 153.532 92.9813 153.301 92.9884 153.031C92.9955 152.761 92.999 152.544 92.999 152.38C92.999 152.203 92.9955 151.982 92.9884 151.719C92.9813 151.449 92.9777 151.214 92.9777 151.015C93.0844 150.994 93.1946 150.994 93.3084 151.015C93.3439 151.342 93.3795 151.58 93.415 151.73C93.4506 151.879 93.5288 151.975 93.6497 152.018C93.7706 152.053 93.9768 152.071 94.2684 152.071H97.5537C98.4995 152.071 99.239 152.316 99.7724 152.807C100.299 153.298 100.562 154.041 100.562 155.036C100.562 155.605 100.469 156.107 100.284 156.54C100.099 156.967 99.815 157.301 99.431 157.543C99.0399 157.785 98.5493 157.906 97.959 157.906H94.2897C93.991 157.906 93.7777 157.924 93.6497 157.959C93.5217 157.995 93.4399 158.087 93.4044 158.236C93.3617 158.386 93.3262 158.628 93.2977 158.962C93.191 158.983 93.0808 158.983 92.967 158.962Z" fill="#0403FA"/>
<path d="M97.1379 140.48C97.1379 140.608 97.1308 140.75 97.1165 140.907C97.1023 141.063 97.0739 141.241 97.0312 141.44H99.1219C99.3423 141.44 99.5165 141.433 99.6445 141.419C99.7654 141.404 99.8579 141.362 99.9219 141.291C99.9859 141.212 100.029 141.106 100.05 140.971C100.071 140.828 100.093 140.604 100.114 140.299C100.228 140.284 100.341 140.284 100.455 140.299C100.455 140.455 100.452 140.644 100.445 140.864C100.445 141.077 100.445 141.291 100.445 141.504C100.437 141.71 100.434 141.884 100.434 142.027C100.434 142.162 100.437 142.332 100.445 142.539C100.445 142.738 100.445 142.94 100.445 143.147C100.452 143.346 100.455 143.524 100.455 143.68C100.349 143.694 100.235 143.694 100.114 143.68C100.078 143.339 100.046 143.093 100.018 142.944C99.9823 142.795 99.9112 142.702 99.8045 142.667C99.6979 142.631 99.5165 142.613 99.2605 142.613H94.3005C94.0019 142.613 93.7885 142.631 93.6605 142.667C93.5325 142.702 93.4508 142.795 93.4152 142.944C93.3725 143.093 93.337 143.339 93.3085 143.68C93.2019 143.694 93.0881 143.694 92.9672 143.68C92.9672 143.538 92.9708 143.36 92.9779 143.147C92.9779 142.926 92.9814 142.713 92.9885 142.507C92.9885 142.3 92.9885 142.151 92.9885 142.059C92.9885 141.924 92.9885 141.756 92.9885 141.557C92.9814 141.351 92.9743 141.148 92.9672 140.949C92.9601 140.75 92.9565 140.594 92.9565 140.48C92.9565 140.032 93.0205 139.616 93.1485 139.232C93.2694 138.848 93.4721 138.539 93.7565 138.304C94.041 138.069 94.4321 137.952 94.9299 137.952C95.4063 137.952 95.8081 138.062 96.1352 138.283C96.4623 138.503 96.7112 138.805 96.8819 139.189C97.0525 139.566 97.1379 139.996 97.1379 140.48ZM96.6045 141.44C96.6259 141.348 96.6472 141.244 96.6685 141.131C96.6899 141.017 96.7005 140.896 96.7005 140.768C96.7005 140.299 96.5441 139.929 96.2312 139.659C95.9112 139.388 95.4952 139.253 94.9832 139.253C94.4854 139.253 94.0943 139.388 93.8099 139.659C93.5254 139.929 93.3832 140.334 93.3832 140.875C93.3832 140.946 93.3868 141.035 93.3939 141.141C93.401 141.241 93.4117 141.34 93.4259 141.44H96.6045Z" fill="#0403FA"/>
<path d="M96.6683 121.756C97.4363 121.756 98.1155 121.913 98.7057 122.226C99.2959 122.539 99.7617 122.98 100.103 123.548C100.437 124.117 100.604 124.789 100.604 125.564C100.604 126.332 100.441 126.99 100.114 127.538C99.7866 128.085 99.335 128.508 98.759 128.807C98.183 129.099 97.5288 129.244 96.7964 129.244C96.0355 129.244 95.3599 129.088 94.7697 128.775C94.1723 128.462 93.7066 128.021 93.3723 127.452C93.031 126.876 92.8604 126.204 92.8604 125.436C92.8604 124.676 93.0239 124.021 93.351 123.474C93.6781 122.926 94.1297 122.503 94.7057 122.204C95.2746 121.906 95.9288 121.756 96.6683 121.756ZM96.775 123.079C96.3412 123.079 95.9181 123.122 95.5057 123.207C95.0932 123.292 94.7199 123.431 94.3857 123.623C94.0515 123.808 93.7883 124.053 93.5963 124.359C93.3972 124.665 93.2977 125.038 93.2977 125.479C93.2977 125.927 93.3972 126.308 93.5963 126.62C93.7955 126.926 94.0586 127.175 94.3857 127.367C94.7128 127.552 95.079 127.691 95.4843 127.783C95.8897 127.868 96.3021 127.911 96.7217 127.911C97.1341 127.911 97.5466 127.868 97.959 127.783C98.3644 127.691 98.7341 127.548 99.0684 127.356C99.4026 127.164 99.6728 126.912 99.879 126.599C100.078 126.279 100.178 125.895 100.178 125.447C100.178 125.006 100.082 124.636 99.8897 124.338C99.6977 124.032 99.4417 123.787 99.1217 123.602C98.7946 123.417 98.4284 123.285 98.023 123.207C97.6177 123.122 97.2017 123.079 96.775 123.079Z" fill="#0403FA"/>
<path d="M98.6667 176.889C98.6667 176.398 98.2685 176 97.7778 176C97.2871 176 96.8889 176.398 96.8889 176.889C96.8889 177.38 97.2871 177.778 97.7778 177.778C98.2685 177.778 98.6667 177.38 98.6667 176.889Z" fill="#0403FA"/>
<path d="M98.6667 162.667C98.6667 162.176 98.2685 161.778 97.7778 161.778C97.2871 161.778 96.8889 162.176 96.8889 162.667C96.8889 163.157 97.2871 163.556 97.7778 163.556C98.2685 163.556 98.6667 163.157 98.6667 162.667Z" fill="#0403FA"/>
<path d="M98.6667 147.556C98.6667 147.065 98.2685 146.667 97.7778 146.667C97.2871 146.667 96.8889 147.065 96.8889 147.556C96.8889 148.046 97.2871 148.444 97.7778 148.444C98.2685 148.444 98.6667 148.046 98.6667 147.556Z" fill="#0403FA"/>
<path d="M98.6667 133.333C98.6667 132.843 98.2685 132.444 97.7778 132.444C97.2871 132.444 96.8889 132.843 96.8889 133.333C96.8889 133.824 97.2871 134.222 97.7778 134.222C98.2685 134.222 98.6667 133.824 98.6667 133.333Z" fill="#0403FA"/>
</svg>
